<?xml version="1.0" encoding="UTF-8"?>
<!DOCTYPE svg PUBLIC "-//W3C//DTD SVG 1.1//EN" "http://www.w3.org/Graphics/SVG/1.1/DTD/svg11.dtd">
<svg xmlns="http://www.w3.org/2000/svg" version="1.1" width="1200px" height="1379px" style="shape-rendering:geometricPrecision; text-rendering:geometricPrecision; image-rendering:optimizeQuality; fill-rule:evenodd; clip-rule:evenodd" xmlns:xlink="http://www.w3.org/1999/xlink">
<g><path style="opacity:0.98" fill="#030201" d="M 591.5,11.5 C 599.5,11.5 607.5,11.5 615.5,11.5C 615.5,23.1667 615.5,34.8333 615.5,46.5C 624.5,46.5 633.5,46.5 642.5,46.5C 642.5,54.8333 642.5,63.1667 642.5,71.5C 633.5,71.5 624.5,71.5 615.5,71.5C 615.334,76.8437 615.501,82.1771 616,87.5C 623.962,91.0627 630.462,96.396 635.5,103.5C 652.057,93.6523 666.557,95.9856 679,110.5C 681.736,115.876 683.57,121.542 684.5,127.5C 698.35,121.602 710.517,123.935 721,134.5C 726.112,116.013 738.278,108.18 757.5,111C 774.242,116.781 781.742,128.614 780,146.5C 796.463,135.809 811.13,137.809 824,152.5C 826.441,156.935 828.275,161.602 829.5,166.5C 846.345,164.004 857.845,170.671 864,186.5C 865.583,192.141 865.917,197.808 865,203.5C 882.537,212.076 888.037,225.576 881.5,244C 893.089,253.434 896.589,265.267 892,279.5C 890.961,281.746 889.794,283.913 888.5,286C 898.985,298.337 900.152,311.504 892,325.5C 889.297,328.538 886.297,331.205 883,333.5C 885.493,356.017 875.327,367.85 852.5,369C 843.867,370.224 835.2,371.058 826.5,371.5C 825.745,390.883 816.078,403.05 797.5,408C 803.2,416.51 808.2,425.343 812.5,434.5C 803.627,436.052 794.961,438.218 786.5,441C 792.003,446.669 794.67,453.502 794.5,461.5C 794.788,471.753 791.121,480.253 783.5,487C 885.023,544.108 949.19,629.608 976,743.5C 981.294,770.07 984.128,796.903 984.5,824C 983.625,846.951 981.792,869.784 979,892.5C 1004.07,908.133 1027.24,926.3 1048.5,947C 1093.74,997.907 1141.41,1046.57 1191.5,1093C 1129.39,1110.23 1071.05,1135.89 1016.5,1170C 1065.83,1220 1115.17,1270 1164.5,1320C 1147.17,1331.67 1129.83,1343.33 1112.5,1355C 1110.96,1356.19 1109.29,1356.52 1107.5,1356C 1058.32,1305.99 1008.99,1256.15 959.5,1206.5C 915.687,1236.91 871.021,1266.08 825.5,1294C 777.16,1323.12 725.827,1345.45 671.5,1361C 626.925,1373.4 581.925,1375.4 536.5,1367C 520.954,1363.6 505.954,1358.6 491.5,1352C 461.303,1317.94 428.637,1286.6 393.5,1258C 380.516,1248.17 367.183,1238.84 353.5,1230C 331.39,1224.11 311.723,1213.78 294.5,1199C 276.034,1182.22 260.201,1163.38 247,1142.5C 221.745,1097.23 189.245,1057.73 149.5,1024C 130.52,1009.51 111.187,995.51 91.5,982C 81.5851,972.669 73.7517,961.836 68,949.5C 59.9206,927.594 51.2539,905.928 42,884.5C 32.768,861.139 25.768,837.139 21,812.5C 17.7251,788.174 17.7251,763.84 21,739.5C 25.5214,711.747 30.5214,684.081 36,656.5C 39.2878,636.827 39.2878,617.16 36,597.5C 16.4917,532.542 12.1584,466.542 23,399.5C 29.9259,353.037 39.0926,307.037 50.5,261.5C 27.5516,262.724 13.7183,252.057 9,229.5C 7.10373,216.754 9.7704,205.088 17,194.5C 27.1937,182.973 38.0271,172.14 49.5,162C 70.041,151.602 87.8744,155.102 103,172.5C 112.741,187.214 112.908,202.047 103.5,217C 195.5,315.667 287.5,414.333 379.5,513C 380.5,513.667 381.5,513.667 382.5,513C 395.66,503.584 409.326,494.917 423.5,487C 412.553,476.039 409.72,463.206 415,448.5C 416.061,445.438 417.894,442.938 420.5,441C 411.863,438.506 403.197,436.006 394.5,433.5C 399.301,424.87 404.301,416.37 409.5,408C 390.922,403.05 381.255,390.883 380.5,371.5C 366.97,371.115 353.636,369.281 340.5,366C 332.693,363.526 327.526,358.359 325,350.5C 323.496,344.853 323.163,339.187 324,333.5C 309.053,322.376 305.72,308.376 314,291.5C 315.62,289.759 317.12,287.925 318.5,286C 310.737,273.278 311.237,260.778 320,248.5C 321.558,246.641 323.391,245.141 325.5,244C 318.963,225.576 324.463,212.076 342,203.5C 339.61,181.26 349.444,168.593 371.5,165.5C 373.56,165.572 375.56,165.905 377.5,166.5C 382.911,145.626 396.244,137.126 417.5,141C 420.912,142.455 424.079,144.288 427,146.5C 426.44,121.391 438.607,109.558 463.5,111C 476.106,113.939 483.606,121.772 486,134.5C 496.483,123.935 508.65,121.602 522.5,127.5C 525.725,106.223 538.058,96.3897 559.5,98C 563.879,99.023 567.879,100.856 571.5,103.5C 576.538,96.396 583.038,91.0627 591,87.5C 591.499,82.1771 591.666,76.8437 591.5,71.5C 582.5,71.5 573.5,71.5 564.5,71.5C 564.5,63.1667 564.5,54.8333 564.5,46.5C 573.5,46.5 582.5,46.5 591.5,46.5C 591.5,34.8333 591.5,23.1667 591.5,11.5 Z M 66.5,274.5 C 154.1,368.604 241.934,462.604 330,556.5C 330.667,557.167 330.667,557.833 330,558.5C 307.599,581.558 288.265,606.891 272,634.5C 221.568,575.398 176.568,512.398 137,445.5C 105.784,391.687 82.2842,334.687 66.5,274.5 Z"/></g>
<g><path style="opacity:1" fill="#fbde48" d="M 597.5,105.5 C 614.668,104.161 621.835,111.828 619,128.5C 614.527,137.482 607.36,140.649 597.5,138C 586.478,131.599 583.978,122.766 590,111.5C 592.478,109.361 594.978,107.361 597.5,105.5 Z"/></g>
<g><path style="opacity:1" fill="#fcdf49" d="M 547.5,110.5 C 557.071,108.871 564.237,112.204 569,120.5C 571.167,137.667 563.667,145.167 546.5,143C 536.266,136.799 533.766,128.299 539,117.5C 541.441,114.546 544.275,112.213 547.5,110.5 Z"/></g>
<g><path style="opacity:1" fill="#fcdf49" d="M 648.5,110.5 C 664.315,109.481 671.481,116.814 670,132.5C 665.4,142.048 657.9,145.548 647.5,143C 638.736,137.961 635.569,130.461 638,120.5C 640.762,116.234 644.262,112.901 648.5,110.5 Z"/></g>
<g><path style="opacity:1" fill="#fadd48" d="M 453.5,122.5 C 470.898,124.058 476.732,133.058 471,149.5C 464.315,156.854 456.482,158.354 447.5,154C 437.698,145.711 437.032,136.711 445.5,127C 448.099,125.205 450.766,123.705 453.5,122.5 Z"/></g>
<g><path style="opacity:1" fill="#f9dd48" d="M 746.5,122.5 C 763.785,123.43 769.952,132.097 765,148.5C 758.319,156.755 750.152,158.589 740.5,154C 730.866,144.002 731.199,134.335 741.5,125C 743.315,124.243 744.981,123.41 746.5,122.5 Z"/></g>
<g><path style="opacity:1" fill="#f9dd48" d="M 504.5,136.5 C 519.181,136.677 526.014,144.01 525,158.5C 520.014,169.168 511.847,172.668 500.5,169C 491.287,162.731 489.12,154.564 494,144.5C 496.975,140.952 500.475,138.286 504.5,136.5 Z"/></g>
<g><path style="opacity:1" fill="#f9dd48" d="M 694.5,136.5 C 713.337,137.854 719.171,147.188 712,164.5C 703.575,171.993 694.909,172.327 686,165.5C 678.224,152.666 681.057,143 694.5,136.5 Z"/></g>
<g><path style="opacity:1" fill="#e91c23" d="M 575.5,145.5 C 578.172,147.84 580.839,150.173 583.5,152.5C 581.332,155.498 580.332,158.831 580.5,162.5C 566.507,163.827 558.84,171.493 557.5,185.5C 557.638,195.287 561.971,202.454 570.5,207C 557.442,215.727 554.276,227.227 561,241.5C 563.167,245 566,247.833 569.5,250C 560.787,262.371 561.954,273.871 573,284.5C 573.688,285.332 573.521,285.998 572.5,286.5C 549.68,298.814 526.013,300.647 501.5,292C 499.18,290.512 499.013,288.679 501,286.5C 503.052,271.766 497.218,261.599 483.5,256C 491.319,252.536 496.486,246.703 499,238.5C 499.516,232.782 499.516,227.115 499,221.5C 517.072,213.965 523.238,200.799 517.5,182C 530.643,176.172 537.477,166.005 538,151.5C 552.082,159.304 564.582,157.304 575.5,145.5 Z"/></g>
<g><path style="opacity:1" fill="#e91c23" d="M 630.5,145.5 C 638.222,153.241 647.556,156.741 658.5,156C 662.295,155.186 665.795,153.686 669,151.5C 669.514,165.998 676.348,176.165 689.5,182C 683.842,200.539 689.842,213.706 707.5,221.5C 705.38,232.617 708.046,242.45 715.5,251C 717.901,253.062 720.567,254.729 723.5,256C 708.149,262.699 702.816,274.032 707.5,290C 707.095,290.945 706.428,291.612 705.5,292C 680.911,300.879 657.244,299.045 634.5,286.5C 633.479,285.998 633.312,285.332 634,284.5C 644.926,273.846 646.092,262.346 637.5,250C 649.51,241.8 652.677,230.966 647,217.5C 644.167,213.333 640.667,209.833 636.5,207C 649.538,198.359 652.704,186.859 646,172.5C 641.194,165.86 634.694,162.526 626.5,162.5C 626.668,158.831 625.668,155.498 623.5,152.5C 626.161,150.506 628.494,148.173 630.5,145.5 Z"/></g>
<g><path style="opacity:1" fill="#f9dd48" d="M 402.5,152.5 C 421.098,152.252 427.598,160.919 422,178.5C 413.103,188.691 403.769,189.024 394,179.5C 387.889,167.666 390.722,158.666 402.5,152.5 Z"/></g>
<g><path style="opacity:1" fill="#f9dd48" d="M 793.5,152.5 C 804.574,150.783 812.074,155.117 816,165.5C 816.5,179.667 809.667,186.5 795.5,186C 783.204,180.794 779.704,171.96 785,159.5C 787.441,156.546 790.275,154.213 793.5,152.5 Z"/></g>
<g><path style="opacity:1" fill="#f6da47" d="M 599.5,157.5 C 607.661,156.171 611.495,159.505 611,167.5C 606.515,175.035 601.515,175.368 596,168.5C 594.662,163.96 595.829,160.293 599.5,157.5 Z"/></g>
<g><path style="opacity:1" fill="#e91c23" d="M 478.5,158.5 C 479.586,158.62 480.253,159.287 480.5,160.5C 481.228,162.155 481.395,163.821 481,165.5C 463.95,174.321 458.45,187.821 464.5,206C 448.551,215.179 444.218,228.179 451.5,245C 440.47,248.586 434.304,256.086 433,267.5C 422.63,274.235 418.963,283.568 422,295.5C 423.686,300.432 426.019,304.765 429,308.5C 418.507,319.664 405.674,325.831 390.5,327C 384.239,318.638 376.239,316.471 366.5,320.5C 366.167,320.167 365.833,319.833 365.5,319.5C 370.108,309.245 369.108,299.579 362.5,290.5C 371.586,280.577 373.919,269.244 369.5,256.5C 373.218,252.268 376.385,247.602 379,242.5C 379.667,240.5 380.333,238.5 381,236.5C 381.291,231.712 381.458,227.045 381.5,222.5C 392.693,217.809 399.193,209.476 401,197.5C 419.071,200.3 430.738,192.967 436,175.5C 436.365,170.328 436.531,165.328 436.5,160.5C 447.947,169.855 460.28,171.021 473.5,164C 475.373,162.296 477.04,160.463 478.5,158.5 Z"/></g>
<g><path style="opacity:1" fill="#e91c23" d="M 726.5,158.5 C 730.392,161.871 734.726,164.704 739.5,167C 751.228,170.537 761.728,168.37 771,160.5C 768.458,186.789 780.291,199.122 806.5,197.5C 808.393,209.898 815.06,218.732 826.5,224C 824.167,236.998 828.167,247.664 838.5,256C 833.036,268.77 835.036,280.27 844.5,290.5C 837.892,299.579 836.892,309.245 841.5,319.5C 841.167,319.833 840.833,320.167 840.5,320.5C 830.661,316.239 822.661,318.405 816.5,327C 800.853,325.843 787.853,319.343 777.5,307.5C 790.15,293.733 789.483,280.733 775.5,268.5C 773.138,256.908 766.471,249.075 755.5,245C 762.934,228.634 758.767,216.134 743,207.5C 748.674,192.185 745.174,179.351 732.5,169C 730.35,167.589 728.016,166.755 725.5,166.5C 725.833,163.833 726.167,161.167 726.5,158.5 Z"/></g>
<g><path style="opacity:1" fill="#fcdf49" d="M 66.5,173.5 C 85.0009,172.5 93.5009,181.167 92,199.5C 89.9707,206.202 86.3041,211.868 81,216.5C 80.3333,217.5 80.3333,218.5 81,219.5C 176.35,321.349 271.517,423.349 366.5,525.5C 358.877,531.952 351.377,538.619 344,545.5C 248.8,443.968 153.966,342.134 59.5,240C 44.2781,247.863 33.1114,244.029 26,228.5C 24.7189,221.457 25.7189,214.79 29,208.5C 37.7664,197.731 47.2664,187.564 57.5,178C 60.5919,176.454 63.5919,174.954 66.5,173.5 Z"/></g>
<g><path style="opacity:1" fill="#f5d947" d="M 577.5,174.5 C 579.288,174.215 580.955,174.548 582.5,175.5C 584.115,178.45 586.115,181.116 588.5,183.5C 585.105,187.881 581.771,192.215 578.5,196.5C 570.861,193.555 568.361,188.222 571,180.5C 572.914,178.144 575.081,176.144 577.5,174.5 Z"/></g>
<g><path style="opacity:1" fill="#f5d947" d="M 624.5,174.5 C 633.463,174.96 637.629,179.626 637,188.5C 635.601,192.734 632.768,195.4 628.5,196.5C 625.229,192.215 621.895,187.881 618.5,183.5C 621.337,181.008 623.337,178.008 624.5,174.5 Z"/></g>
<g><path style="opacity:1" fill="#fadd48" d="M 485.5,176.5 C 503.159,175.99 509.992,184.324 506,201.5C 499.18,210.994 490.68,212.827 480.5,207C 474.014,200.02 472.847,192.186 477,183.5C 479.441,180.546 482.275,178.213 485.5,176.5 Z"/></g>
<g><path style="opacity:1" fill="#fade48" d="M 710.5,176.5 C 728.215,176.041 735.049,184.374 731,201.5C 722.726,212.158 713.393,213.158 703,204.5C 696.356,192.558 698.856,183.225 710.5,176.5 Z"/></g>
<g><path style="opacity:1" fill="#fadd48" d="M 365.5,178.5 C 380.859,176.704 388.359,183.371 388,198.5C 384.017,209.908 376.184,214.075 364.5,211C 354.254,204.181 352.087,195.348 358,184.5C 360.478,182.361 362.978,180.361 365.5,178.5 Z"/></g>
<g><path style="opacity:1" fill="#f9dd48" d="M 830.5,178.5 C 848.949,178.435 855.449,187.102 850,204.5C 840.968,214.715 831.635,215.049 822,205.5C 815.694,193.478 818.527,184.478 830.5,178.5 Z"/></g>
<g><path style="opacity:1" fill="#f5d947" d="M 600.5,194.5 C 608.658,193.823 612.158,197.49 611,205.5C 606.049,212.154 601.049,212.154 596,205.5C 594.776,200.626 596.276,196.959 600.5,194.5 Z"/></g>
<g><path style="opacity:1" fill="#f9dd48" d="M 347.5,214.5 C 363.485,214.307 370.318,221.974 368,237.5C 363.711,246.71 356.544,250.21 346.5,248C 337.062,243.38 333.562,235.88 336,225.5C 338.495,220.353 342.329,216.686 347.5,214.5 Z"/></g>
<g><path style="opacity:1" fill="#f9dd48" d="M 850.5,214.5 C 867.576,214.669 874.076,223.003 870,239.5C 863.707,248.449 855.541,250.616 845.5,246C 833.8,233.364 835.467,222.864 850.5,214.5 Z"/></g>
<g><path style="opacity:1" fill="#f8dc48" d="M 470.5,217.5 C 484.327,218.156 489.494,225.156 486,238.5C 477.2,248.145 468.867,247.812 461,237.5C 458.517,228.133 461.684,221.466 470.5,217.5 Z"/></g>
<g><path style="opacity:1" fill="#f7db47" d="M 577.5,217.5 C 586.392,216.903 590.892,220.903 591,229.5C 587.308,231.692 584.474,234.692 582.5,238.5C 574.828,239.854 570.495,236.521 569.5,228.5C 570.472,223.541 573.138,219.874 577.5,217.5 Z"/></g>
<g><path style="opacity:1" fill="#f7db47" d="M 622.5,217.5 C 632.495,216.997 637.329,221.664 637,231.5C 634.982,237.922 630.815,240.255 624.5,238.5C 622.526,234.692 619.692,231.692 616,229.5C 615.339,223.989 617.506,219.989 622.5,217.5 Z"/></g>
<g><path style="opacity:1" fill="#f7db47" d="M 729.5,217.5 C 741.526,217.027 747.359,222.694 747,234.5C 743.904,243.301 737.737,246.801 728.5,245C 719.75,239.836 717.584,232.67 722,223.5C 724.114,220.879 726.614,218.879 729.5,217.5 Z"/></g>
<g><path style="opacity:1" fill="#fadd48" d="M 598.5,236.5 C 609.701,234.846 616.534,239.513 619,250.5C 624.864,251.758 629.531,254.758 633,259.5C 635.989,268.531 633.156,275.031 624.5,279C 620.584,280.102 616.584,280.769 612.5,281C 629.277,297.766 649.61,306.266 673.5,306.5C 691.76,306.102 709.093,301.935 725.5,294C 714.917,288.509 712.75,280.676 719,270.5C 723.678,266.307 729.178,264.474 735.5,265C 739.345,256.912 745.678,253.912 754.5,256C 761.942,259.373 765.442,265.207 765,273.5C 775.65,278.806 778.316,286.806 773,297.5C 769.56,300.97 765.393,302.97 760.5,303.5C 771.9,321.4 787.9,332.9 808.5,338C 813.5,338.667 818.5,338.667 823.5,338C 825.129,328.362 830.129,326.029 838.5,331C 840.208,333.043 842.208,334.71 844.5,336C 850.171,336.073 855.838,336.073 861.5,336C 866.833,340.333 866.833,344.667 861.5,349C 808.601,364.053 768.768,347.886 742,300.5C 715.625,316.15 687.125,321.983 656.5,318C 636.161,314.829 618.495,306.329 603.5,292.5C 585.854,308.15 565.188,316.983 541.5,319C 513.999,320.916 488.499,314.749 465,300.5C 438.068,347.496 398.235,363.663 345.5,349C 340.167,344.667 340.167,340.333 345.5,336C 350.485,336.219 355.485,336.219 360.5,336C 365.074,333.243 369.741,330.743 374.5,328.5C 380.034,329.202 383.034,332.369 383.5,338C 401.428,339.246 417.095,333.913 430.5,322C 436.02,315.981 441.353,309.814 446.5,303.5C 432.564,300.629 428.398,292.629 434,279.5C 436.667,277.5 439.333,275.5 442,273.5C 443.482,257.517 451.649,252.35 466.5,258C 468.167,260.333 469.833,262.667 471.5,265C 488.011,265.247 493.844,273.081 489,288.5C 487.062,291.106 484.562,292.939 481.5,294C 516.164,311.594 550.164,310.594 583.5,291C 587.132,288.37 590.465,285.37 593.5,282C 585.296,281.484 578.796,277.984 574,271.5C 571.392,260.068 575.892,253.068 587.5,250.5C 589.089,247.579 590.589,244.579 592,241.5C 593.965,239.45 596.132,237.783 598.5,236.5 Z"/></g>
<g><path style="opacity:1" fill="#fadd48" d="M 337.5,251.5 C 355.92,251.362 362.42,260.029 357,277.5C 347.968,287.715 338.635,288.049 329,278.5C 322.889,266.666 325.722,257.666 337.5,251.5 Z"/></g>
<g><path style="opacity:1" fill="#fade48" d="M 859.5,251.5 C 869.655,250.161 876.822,254.161 881,263.5C 881.119,281.388 872.619,287.888 855.5,283C 846.697,275.821 845.197,267.321 851,257.5C 853.637,255.109 856.47,253.109 859.5,251.5 Z"/></g>
<g><path style="opacity:1" fill="#0b0903" d="M 599.5,256.5 C 605.766,255.117 609.433,257.45 610.5,263.5C 608.443,271.779 603.943,273.446 597,268.5C 594.455,263.723 595.288,259.723 599.5,256.5 Z"/></g>
<g><path style="opacity:1" fill="#0a0802" d="M 457.5,274.5 C 467.855,274.724 470.522,279.224 465.5,288C 456.319,291.325 452.485,288.158 454,278.5C 455.376,277.295 456.542,275.962 457.5,274.5 Z"/></g>
<g><path style="opacity:1" fill="#0b0903" d="M 743.5,274.5 C 753.11,274.936 755.776,279.436 751.5,288C 742.961,291.451 738.794,288.618 739,279.5C 740.025,277.313 741.525,275.646 743.5,274.5 Z"/></g>
<g><path style="opacity:1" fill="#fade48" d="M 332.5,291.5 C 345.946,289.372 353.946,294.872 356.5,308C 352.912,322.961 343.912,327.628 329.5,322C 319.379,310.712 320.379,300.545 332.5,291.5 Z"/></g>
<g><path style="opacity:1" fill="#fcdf49" d="M 861.5,291.5 C 871.897,289.449 879.397,293.116 884,302.5C 885.5,318.333 878.333,325.5 862.5,324C 852.689,319.607 849.189,312.107 852,301.5C 854.022,296.98 857.189,293.647 861.5,291.5 Z"/></g>
<g><path style="opacity:1" fill="#133b8a" d="M 112.5,425.5 C 107.9,460.774 107.4,496.108 111,531.5C 123.739,571.34 129.572,612.173 128.5,654C 128.477,671.515 127.977,689.015 127,706.5C 120.652,740.935 115.986,775.602 113,810.5C 110.398,841.31 114.065,871.31 124,900.5C 128.166,912.189 134.333,922.522 142.5,931.5C 143.969,933.105 143.635,933.605 141.5,933C 104.287,909.454 74.1202,878.954 51,841.5C 33.6335,811.334 27.3001,779.001 32,744.5C 36.3608,717.055 41.3608,689.722 47,662.5C 50.5605,641.912 51.2272,621.245 49,600.5C 42.7372,578.115 37.7372,555.448 34,532.5C 28.1923,481.607 29.8589,430.94 39,380.5C 43.7343,351.492 49.7343,322.825 57,294.5C 66.8589,328.744 79.8589,361.744 96,393.5C 101.768,404.037 107.268,414.703 112.5,425.5 Z"/></g>
<g><path style="opacity:1" fill="#fcdf49" d="M 574.5,322.5 C 653.41,318.412 729.077,331.912 801.5,363C 810.47,370.927 810.803,379.26 802.5,388C 799.298,389.483 795.964,389.817 792.5,389C 687.623,344.761 580.289,337.761 470.5,368C 451.446,374.017 432.779,381.017 414.5,389C 407.383,390.858 402.549,388.358 400,381.5C 397.947,374.05 399.78,367.884 405.5,363C 459.424,338.986 515.758,325.486 574.5,322.5 Z"/></g>
<g><path style="opacity:1" fill="#f7db47" d="M 769.5,407.5 C 764.686,407.22 760.02,407.886 755.5,409.5C 756.521,411.188 757.855,412.521 759.5,413.5C 760.124,415.754 761.457,417.421 763.5,418.5C 764.124,420.754 765.457,422.421 767.5,423.5C 768.443,426.109 770.11,428.109 772.5,429.5C 772.5,429.833 772.5,430.167 772.5,430.5C 773.29,431.794 774.29,432.961 775.5,434C 734.804,417.241 692.471,406.241 648.5,401C 573.652,393.263 501.819,404.43 433,434.5C 432.5,434.333 432,434.167 431.5,434C 434.293,430.895 436.96,427.728 439.5,424.5C 439.5,424.167 439.5,423.833 439.5,423.5C 441.167,422.5 442.5,421.167 443.5,419.5C 443.5,419.167 443.5,418.833 443.5,418.5C 445.587,417.415 446.92,415.749 447.5,413.5C 448.167,413.5 448.5,413.167 448.5,412.5C 451.802,411.022 451.968,409.688 449,408.5C 444.205,407.642 439.372,407.309 434.5,407.5C 432.052,406.527 429.385,406.194 426.5,406.5C 425.048,405.698 423.382,405.198 421.5,405C 478.957,379.074 539.291,366.241 602.5,366.5C 666.367,366.221 727.367,379.054 785.5,405C 780.012,405.774 774.679,406.607 769.5,407.5 Z"/></g>
<g><path style="opacity:1" fill="#1c3679" d="M 607.5,372.5 C 614.46,374.654 621.126,377.321 627.5,380.5C 628.6,381.558 629.934,382.392 631.5,383C 630.584,383.278 629.918,383.778 629.5,384.5C 621.097,388.531 612.431,392.198 603.5,395.5C 594.569,392.198 585.903,388.531 577.5,384.5C 577.082,383.778 576.416,383.278 575.5,383C 583.754,379.471 592.087,376.138 600.5,373C 602.81,372.503 605.143,372.337 607.5,372.5 Z"/></g>
<g><path style="opacity:1" fill="#1e1b1b" d="M 607.5,372.5 C 605.143,372.337 602.81,372.503 600.5,373C 592.087,376.138 583.754,379.471 575.5,383C 576.416,383.278 577.082,383.778 577.5,384.5C 575.692,384.509 574.025,384.009 572.5,383C 582.719,378.538 593.052,374.372 603.5,370.5C 605.171,370.668 606.504,371.335 607.5,372.5 Z"/></g>
<g><path style="opacity:1" fill="#e81c23" d="M 545.5,382.5 C 546.428,389.32 543.761,393.987 537.5,396.5C 524.086,398.883 510.752,401.716 497.5,405C 492.086,406.131 487.086,405.297 482.5,402.5C 481.701,399.57 481.368,396.57 481.5,393.5C 483.5,392.167 485.167,390.5 486.5,388.5C 490.025,387.79 493.358,386.79 496.5,385.5C 499.495,385.706 502.162,385.04 504.5,383.5C 504.833,383.5 505.167,383.5 505.5,383.5C 515.132,381.622 524.799,379.956 534.5,378.5C 538.935,377.891 542.602,379.224 545.5,382.5 Z"/></g>
<g><path style="opacity:1" fill="#e71c23" d="M 683.5,379.5 C 685.415,379.216 687.081,379.549 688.5,380.5C 698.301,383.201 708.301,385.534 718.5,387.5C 719.899,388.89 721.566,389.89 723.5,390.5C 723.427,392.027 724.094,393.027 725.5,393.5C 726.757,399.156 724.757,402.989 719.5,405C 715.833,405.667 712.167,405.667 708.5,405C 702.97,403.127 697.303,401.961 691.5,401.5C 691.167,401.5 690.833,401.5 690.5,401.5C 688.162,399.96 685.495,399.294 682.5,399.5C 682.167,399.5 681.833,399.5 681.5,399.5C 676.204,398.048 670.871,396.381 665.5,394.5C 662.075,391.271 660.742,387.271 661.5,382.5C 663.01,381.164 664.677,379.997 666.5,379C 672.195,378.374 677.862,378.541 683.5,379.5 Z"/></g>
<g><path style="opacity:1" fill="#402812" d="M 545.5,382.5 C 542.602,379.224 538.935,377.891 534.5,378.5C 524.799,379.956 515.132,381.622 505.5,383.5C 514.844,380.293 524.511,377.96 534.5,376.5C 537.795,376.295 540.795,377.128 543.5,379C 544.823,379.816 545.489,380.983 545.5,382.5 Z"/></g>
<g><path style="opacity:1" fill="#412611" d="M 683.5,379.5 C 677.862,378.541 672.195,378.374 666.5,379C 664.677,379.997 663.01,381.164 661.5,382.5C 662.359,379.548 664.359,377.715 667.5,377C 673.19,376.242 678.523,377.076 683.5,379.5 Z"/></g>
<g><path style="opacity:1" fill="#2f1c0e" d="M 688.5,380.5 C 698.89,381.641 708.89,383.974 718.5,387.5C 708.301,385.534 698.301,383.201 688.5,380.5 Z"/></g>
<g><path style="opacity:1" fill="#1a170f" d="M 627.5,380.5 C 630.016,380.755 632.35,381.589 634.5,383C 632.975,384.009 631.308,384.509 629.5,384.5C 629.918,383.778 630.584,383.278 631.5,383C 629.934,382.392 628.6,381.558 627.5,380.5 Z"/></g>
<g><path style="opacity:1" fill="#432111" d="M 504.5,383.5 C 502.162,385.04 499.495,385.706 496.5,385.5C 498.78,383.777 501.447,383.111 504.5,383.5 Z"/></g>
<g><path style="opacity:1" fill="#36150c" d="M 496.5,385.5 C 493.358,386.79 490.025,387.79 486.5,388.5C 489.321,386.288 492.655,385.288 496.5,385.5 Z"/></g>
<g><path style="opacity:1" fill="#2e190c" d="M 718.5,387.5 C 720.933,387.273 722.599,388.273 723.5,390.5C 721.566,389.89 719.899,388.89 718.5,387.5 Z"/></g>
<g><path style="opacity:1" fill="#432d14" d="M 661.5,382.5 C 660.742,387.271 662.075,391.271 665.5,394.5C 662.548,393.641 660.715,391.641 660,388.5C 659.059,386.011 659.559,384.011 661.5,382.5 Z"/></g>
<g><path style="opacity:1" fill="#422b13" d="M 545.5,382.5 C 548.146,387.178 547.146,391.345 542.5,395C 540.975,396.009 539.308,396.509 537.5,396.5C 543.761,393.987 546.428,389.32 545.5,382.5 Z"/></g>
<g><path style="opacity:1" fill="#3a150b" d="M 486.5,388.5 C 485.167,390.5 483.5,392.167 481.5,393.5C 482.167,390.833 483.833,389.167 486.5,388.5 Z"/></g>
<g><path style="opacity:1" fill="#2f1309" d="M 723.5,390.5 C 724.906,390.973 725.573,391.973 725.5,393.5C 724.094,393.027 723.427,392.027 723.5,390.5 Z"/></g>
<g><path style="opacity:1" fill="#392210" d="M 665.5,394.5 C 670.871,396.381 676.204,398.048 681.5,399.5C 678.161,399.11 674.827,398.61 671.5,398C 668.975,397.576 666.975,396.41 665.5,394.5 Z"/></g>
<g><path style="opacity:1" fill="#35120a" d="M 481.5,393.5 C 481.368,396.57 481.701,399.57 482.5,402.5C 481.883,402.389 481.383,402.056 481,401.5C 480.199,398.633 480.366,395.966 481.5,393.5 Z"/></g>
<g><path style="opacity:1" fill="#31180c" d="M 682.5,399.5 C 685.495,399.294 688.162,399.96 690.5,401.5C 687.572,401.435 684.905,400.768 682.5,399.5 Z"/></g>
<g><path style="opacity:1" fill="#3a2211" d="M 537.5,396.5 C 524.748,400.08 511.748,403.247 498.5,406C 494.5,406.667 490.5,406.667 486.5,406C 484.676,405.34 483.343,404.173 482.5,402.5C 487.086,405.297 492.086,406.131 497.5,405C 510.752,401.716 524.086,398.883 537.5,396.5 Z"/></g>
<g><path style="opacity:1" fill="#412912" d="M 725.5,393.5 C 727.441,395.011 727.941,397.011 727,399.5C 726.167,403 724,405.167 720.5,406C 710.363,406.873 700.696,405.373 691.5,401.5C 697.303,401.961 702.97,403.127 708.5,405C 712.167,405.667 715.833,405.667 719.5,405C 724.757,402.989 726.757,399.156 725.5,393.5 Z"/></g>
<g><path style="opacity:1" fill="#133a86" d="M 426.5,406.5 C 429.385,406.194 432.052,406.527 434.5,407.5C 439.357,408.328 444.357,409.162 449.5,410C 448.748,410.671 448.414,411.504 448.5,412.5C 448.5,413.167 448.167,413.5 447.5,413.5C 445.413,414.585 444.08,416.251 443.5,418.5C 443.5,418.833 443.5,419.167 443.5,419.5C 441.167,419.833 439.833,421.167 439.5,423.5C 439.5,423.833 439.5,424.167 439.5,424.5C 438.761,424.369 438.094,424.536 437.5,425C 433.295,430.034 428.961,434.867 424.5,439.5C 415.071,437.476 405.738,435.143 396.5,432.5C 401.959,423.75 407.292,414.916 412.5,406C 417.147,405.995 421.814,406.162 426.5,406.5 Z"/></g>
<g><path style="opacity:1" fill="#133a88" d="M 772.5,430.5 C 772.5,430.167 772.5,429.833 772.5,429.5C 771.527,426.865 769.86,424.865 767.5,423.5C 766.864,421.205 765.531,419.539 763.5,418.5C 762.864,416.205 761.531,414.539 759.5,413.5C 759.489,411.983 758.823,410.816 757.5,410C 761.637,409.161 765.637,408.327 769.5,407.5C 777.885,407.241 786.218,406.741 794.5,406C 799.708,414.916 805.041,423.75 810.5,432.5C 801.083,435.099 791.583,437.432 782,439.5C 779.151,436.984 776.651,434.151 774.5,431C 773.906,430.536 773.239,430.369 772.5,430.5 Z"/></g>
<g><path style="opacity:1" fill="#231f17" d="M 434.5,407.5 C 439.372,407.309 444.205,407.642 449,408.5C 451.968,409.688 451.802,411.022 448.5,412.5C 448.414,411.504 448.748,410.671 449.5,410C 444.357,409.162 439.357,408.328 434.5,407.5 Z"/></g>
<g><path style="opacity:1" fill="#1b1811" d="M 769.5,407.5 C 765.637,408.327 761.637,409.161 757.5,410C 758.823,410.816 759.489,411.983 759.5,413.5C 757.855,412.521 756.521,411.188 755.5,409.5C 760.02,407.886 764.686,407.22 769.5,407.5 Z"/></g>
<g><path style="opacity:1" fill="#1b191f" d="M 759.5,413.5 C 761.531,414.539 762.864,416.205 763.5,418.5C 761.457,417.421 760.124,415.754 759.5,413.5 Z"/></g>
<g><path style="opacity:1" fill="#1d1b17" d="M 447.5,413.5 C 446.92,415.749 445.587,417.415 443.5,418.5C 444.08,416.251 445.413,414.585 447.5,413.5 Z"/></g>
<g><path style="opacity:1" fill="#fbde49" d="M 581.5,415.5 C 648.543,412.838 712.543,425.338 773.5,453C 779.122,464.136 776.288,472.636 765,478.5C 657.446,430.668 549.946,430.668 442.5,478.5C 432.303,474.103 428.47,466.437 431,455.5C 433.408,453.044 436.241,451.211 439.5,450C 484.966,430.299 532.299,418.799 581.5,415.5 Z"/></g>
<g><path style="opacity:1" fill="#1d1b1e" d="M 763.5,418.5 C 765.531,419.539 766.864,421.205 767.5,423.5C 765.457,422.421 764.124,420.754 763.5,418.5 Z"/></g>
<g><path style="opacity:1" fill="#221e15" d="M 443.5,419.5 C 442.5,421.167 441.167,422.5 439.5,423.5C 439.833,421.167 441.167,419.833 443.5,419.5 Z"/></g>
<g><path style="opacity:1" fill="#18171b" d="M 767.5,423.5 C 769.86,424.865 771.527,426.865 772.5,429.5C 770.11,428.109 768.443,426.109 767.5,423.5 Z"/></g>
<g><path style="opacity:1" fill="#fdfdfd" d="M 114.5,430.5 C 132.481,462.463 151.481,493.796 171.5,524.5C 165.493,551.212 163.993,578.212 167,605.5C 169.836,632.183 172.669,658.85 175.5,685.5C 173.842,716.534 171.676,747.534 169,778.5C 166.659,809.219 168.992,839.552 176,869.5C 183.066,902.203 194.566,933.203 210.5,962.5C 210.376,963.107 210.043,963.44 209.5,963.5C 189.13,957.816 169.796,949.649 151.5,939C 148.629,936.297 145.962,933.464 143.5,930.5C 125.805,906.925 116.305,880.258 115,850.5C 114.619,802.031 119.285,754.031 129,706.5C 130.962,674.499 130.962,642.499 129,610.5C 126.606,584.194 121.272,558.528 113,533.5C 109.266,499.073 109.766,464.74 114.5,430.5 Z"/></g>
<g><path style="opacity:1" fill="#e4a413" d="M 571.5,460.5 C 587.503,460.333 603.503,460.5 619.5,461C 582.367,488.797 553.2,523.297 532,564.5C 530.326,568.021 529.16,571.687 528.5,575.5C 486.997,580.208 447.664,592.041 410.5,611C 393.817,620.004 379.15,631.67 366.5,646C 326.246,660.863 290.412,682.697 259,711.5C 270.06,675.047 286.727,641.38 309,610.5C 374.711,522.88 462.211,472.88 571.5,460.5 Z"/></g>
<g><path style="opacity:1" fill="#e5a413" d="M 646.5,462.5 C 670.371,465.292 693.704,470.458 716.5,478C 686.521,494.299 660.354,515.465 638,541.5C 629.167,552.333 620.333,563.167 611.5,574C 672.254,611.555 729.254,654.222 782.5,702C 823.579,665.034 848.413,618.867 857,563.5C 873.204,578.693 887.537,595.36 900,613.5C 899.981,616.244 899.314,618.911 898,621.5C 874.707,671.919 841.873,715.086 799.5,751C 765.171,752.333 731.505,757.666 698.5,767C 684.379,771.707 670.379,776.374 656.5,781C 623.951,751.467 595.451,718.634 571,682.5C 562.263,667.693 554.597,652.36 548,636.5C 539.836,615.257 539.503,593.923 547,572.5C 570.534,527.132 603.701,490.465 646.5,462.5 Z"/></g>
<g><path style="opacity:1" fill="#e3a313" d="M 739.5,486.5 C 755.342,492.421 770.342,499.921 784.5,509C 781.676,513.319 778.676,517.486 775.5,521.5C 771.356,518.524 767.356,515.357 763.5,512C 753.952,511.253 750.785,515.42 754,524.5C 758.758,527.128 763.258,530.128 767.5,533.5C 763.693,539.14 759.693,544.64 755.5,550C 752.902,549.874 750.569,548.874 748.5,547C 744.12,542.952 739.454,539.285 734.5,536C 725.428,535.636 722.262,539.803 725,548.5C 732.315,552.901 739.148,557.901 745.5,563.5C 740.695,570.805 735.695,577.971 730.5,585C 721.109,580.426 712.776,574.093 705.5,566C 691.563,563.001 687.397,568.168 693,581.5C 702.456,587.145 711.289,593.645 719.5,601C 715.327,606.668 710.993,612.168 706.5,617.5C 683.986,600.748 660.986,584.748 637.5,569.5C 664.407,532.908 698.407,505.241 739.5,486.5 Z"/></g>
<g><path style="opacity:1" fill="#e3a313" d="M 799.5,517.5 C 813.686,526.512 827.186,536.512 840,547.5C 837.173,598.475 818.006,642.141 782.5,678.5C 761.96,661.782 741.627,644.949 721.5,628C 724.958,622.255 728.791,616.755 733,611.5C 741.099,617.595 748.599,624.428 755.5,632C 767.843,635.516 772.343,631.016 769,618.5C 760.18,611.511 751.68,604.178 743.5,596.5C 748.806,588.694 754.306,581.027 760,573.5C 765.494,577.995 770.661,582.828 775.5,588C 785.377,588.441 788.544,583.941 785,574.5C 779.179,570.675 774.013,566.175 769.5,561C 772.895,555.036 776.895,549.536 781.5,544.5C 785.353,547.519 788.687,551.019 791.5,555C 800.667,556.5 804.5,552.667 803,543.5C 798.592,539.714 794.092,536.047 789.5,532.5C 792.859,527.482 796.193,522.482 799.5,517.5 Z"/></g>
<g><path style="opacity:1" fill="#133b8a" d="M 173.5,527.5 C 202.087,569.474 232.754,609.974 265.5,649C 220.212,739.255 211.379,833.088 239,930.5C 243.144,944.101 247.978,957.434 253.5,970.5C 240.3,970.635 227.3,968.802 214.5,965C 213.619,964.292 212.953,963.458 212.5,962.5C 201.58,943.586 193.08,923.586 187,902.5C 179.93,879.221 174.597,855.555 171,831.5C 170.333,814.5 170.333,797.5 171,780.5C 173.359,750.03 175.192,719.53 176.5,689C 176.333,682.5 176.167,676 176,669.5C 172.787,644.558 170.121,619.558 168,594.5C 167.138,578.801 167.471,563.134 169,547.5C 169.692,540.525 171.192,533.858 173.5,527.5 Z"/></g>
<g><path style="opacity:1" fill="#e5a413" d="M 516.5,593.5 C 518.833,593.5 521.167,593.5 523.5,593.5C 523.071,614.122 527.238,633.788 536,652.5C 549.15,681.489 565.817,708.155 586,732.5C 602.917,752.254 620.751,771.254 639.5,789.5C 599.672,808.565 562.339,831.398 527.5,858C 511.758,870.62 495.924,883.12 480,895.5C 452.521,872.025 427.855,846.025 406,817.5C 384.058,787.609 370.391,754.276 365,717.5C 361.281,678.435 376.448,649.268 410.5,630C 431.342,618.248 453.342,609.248 476.5,603C 489.995,599.927 503.329,596.76 516.5,593.5 Z"/></g>
<g><path style="opacity:1" fill="#e4a413" d="M 911.5,632.5 C 936.305,671.052 952.805,713.052 961,758.5C 968.282,799.838 968.282,841.171 961,882.5C 905.866,849.716 857.699,808.549 816.5,759C 857.196,723.49 888.863,681.323 911.5,632.5 Z"/></g>
<g><path style="opacity:1" fill="#e5a413" d="M 349.5,672.5 C 350.376,672.369 351.043,672.702 351.5,673.5C 350.016,677.39 348.85,681.39 348,685.5C 345.915,718.074 351.915,749.074 366,778.5C 381.922,812.736 402.922,843.402 429,870.5C 440.738,882.741 452.905,894.408 465.5,905.5C 408.368,948.212 344.035,970.212 272.5,971.5C 241.258,899.755 233.092,825.421 248,748.5C 249.556,745.102 251.723,742.102 254.5,739.5C 282.235,711.477 313.902,689.143 349.5,672.5 Z"/></g>
<g><path style="opacity:1" fill="#16171a" d="M 171.5,524.5 C 172.401,525.29 173.068,526.29 173.5,527.5C 171.192,533.858 169.692,540.525 169,547.5C 167.471,563.134 167.138,578.801 168,594.5C 170.121,619.558 172.787,644.558 176,669.5C 176.167,676 176.333,682.5 176.5,689C 175.192,719.53 173.359,750.03 171,780.5C 170.333,797.5 170.333,814.5 171,831.5C 174.597,855.555 179.93,879.221 187,902.5C 193.08,923.586 201.58,943.586 212.5,962.5C 211.849,963.091 211.182,963.757 210.5,964.5C 209.893,964.376 209.56,964.043 209.5,963.5C 210.043,963.44 210.376,963.107 210.5,962.5C 194.566,933.203 183.066,902.203 176,869.5C 168.992,839.552 166.659,809.219 169,778.5C 171.676,747.534 173.842,716.534 175.5,685.5C 172.669,658.85 169.836,632.183 167,605.5C 163.993,578.212 165.493,551.212 171.5,524.5 Z"/></g>
<g><path style="opacity:1" fill="#121319" d="M 112.5,425.5 C 113.167,427.167 113.833,428.833 114.5,430.5C 109.766,464.74 109.266,499.073 113,533.5C 121.272,558.528 126.606,584.194 129,610.5C 130.962,642.499 130.962,674.499 129,706.5C 119.285,754.031 114.619,802.031 115,850.5C 116.305,880.258 125.805,906.925 143.5,930.5C 142.833,930.5 142.5,930.833 142.5,931.5C 134.333,922.522 128.166,912.189 124,900.5C 114.065,871.31 110.398,841.31 113,810.5C 115.986,775.602 120.652,740.935 127,706.5C 127.977,689.015 128.477,671.515 128.5,654C 129.572,612.173 123.739,571.34 111,531.5C 107.4,496.108 107.9,460.774 112.5,425.5 Z"/></g>
<g><path style="opacity:1" fill="#133b8a" d="M 851.5,828.5 C 785.118,830.243 721.118,843.41 659.5,868C 643.421,875.54 627.754,883.873 612.5,893C 575.994,917.419 539.66,942.086 503.5,967C 477.681,982.8 451.348,997.8 424.5,1012C 418.101,1016.19 411.768,1020.36 405.5,1024.5C 329.056,993.12 253.723,995.62 179.5,1032C 178.167,1032.67 176.833,1032.67 175.5,1032C 166.464,1023.3 157.131,1014.96 147.5,1007C 131.5,995.667 115.5,984.333 99.5,973C 89.2272,963.722 81.7272,952.555 77,939.5C 70.2539,920.928 62.9206,902.594 55,884.5C 50.3684,872.936 46.3684,861.269 43,849.5C 85.5242,916.991 145.691,960.158 223.5,979C 266.62,986.531 309.287,984.531 351.5,973C 393.775,961.36 432.775,943.026 468.5,918C 495.785,897.717 522.785,877.05 549.5,856C 583.248,831.781 619.248,811.114 657.5,794C 704.64,772.972 753.973,762.972 805.5,764C 824.064,786.9 844.397,808.234 866.5,828C 861.511,828.499 856.511,828.666 851.5,828.5 Z"/></g>
<g><path style="opacity:1" fill="#fdfdfd" d="M 869.5,830.5 C 882.103,841.471 895.103,851.971 908.5,862C 904.83,862.279 901.163,862.112 897.5,861.5C 839.074,859.682 783.407,871.182 730.5,896C 704.072,908.379 678.405,922.046 653.5,937C 611.897,963.607 570.563,990.607 529.5,1018C 515.082,1026.07 500.416,1033.74 485.5,1041C 474.737,1045.86 463.737,1050.03 452.5,1053.5C 438.668,1042.74 423.668,1033.74 407.5,1026.5C 408.031,1024.38 409.365,1022.88 411.5,1022C 445.488,1003.68 478.821,984.343 511.5,964C 544.993,940.753 578.66,917.753 612.5,895C 645.36,874.373 680.694,859.373 718.5,850C 767.897,836.234 818.23,829.734 869.5,830.5 Z"/></g>
<g><path style="opacity:1" fill="#133b8a" d="M 894.5,863.5 C 901.333,863.226 908,864.06 914.5,866C 933.662,879.084 953.328,891.417 973.5,903C 985.695,910.597 997.362,918.93 1008.5,928C 981.212,924.949 953.878,924.782 926.5,927.5C 895.103,931.688 864.769,939.854 835.5,952C 801.011,966.91 767.678,983.91 735.5,1003C 690.368,1032.79 644.701,1061.79 598.5,1090C 572.18,1104.83 544.514,1116.33 515.5,1124.5C 499.804,1097.8 479.804,1074.8 455.5,1055.5C 483.482,1044.51 510.482,1031.34 536.5,1016C 588.646,979.751 642.312,945.751 697.5,914C 745.863,887.101 797.53,870.435 852.5,864C 866.496,863.5 880.496,863.333 894.5,863.5 Z"/></g>
<g><path style="opacity:1" fill="#131417" d="M 897.5,861.5 C 896.5,862.167 895.5,862.833 894.5,863.5C 880.496,863.333 866.496,863.5 852.5,864C 797.53,870.435 745.863,887.101 697.5,914C 642.312,945.751 588.646,979.751 536.5,1016C 510.482,1031.34 483.482,1044.51 455.5,1055.5C 454.29,1055.07 453.29,1054.4 452.5,1053.5C 463.737,1050.03 474.737,1045.86 485.5,1041C 500.416,1033.74 515.082,1026.07 529.5,1018C 570.563,990.607 611.897,963.607 653.5,937C 678.405,922.046 704.072,908.379 730.5,896C 783.407,871.182 839.074,859.682 897.5,861.5 Z"/></g>
<g><path style="opacity:1" fill="#131318" d="M 851.5,828.5 C 857.5,829.167 863.5,829.833 869.5,830.5C 818.23,829.734 767.897,836.234 718.5,850C 680.694,859.373 645.36,874.373 612.5,895C 578.66,917.753 544.993,940.753 511.5,964C 478.821,984.343 445.488,1003.68 411.5,1022C 409.365,1022.88 408.031,1024.38 407.5,1026.5C 406.833,1025.83 406.167,1025.17 405.5,1024.5C 411.768,1020.36 418.101,1016.19 424.5,1012C 451.348,997.8 477.681,982.8 503.5,967C 539.66,942.086 575.994,917.419 612.5,893C 627.754,883.873 643.421,875.54 659.5,868C 721.118,843.41 785.118,830.243 851.5,828.5 Z"/></g>
<g><path style="opacity:1" fill="#fdfdfd" d="M 1030.5,959.5 C 978.864,963.659 929.197,975.826 881.5,996C 838.732,1014.38 797.399,1035.38 757.5,1059C 702.035,1095.07 643.369,1125.4 581.5,1150C 567.479,1154.84 553.479,1159.34 539.5,1163.5C 537.669,1164.05 536.003,1164.05 534.5,1163.5C 529.073,1150.98 523.406,1138.65 517.5,1126.5C 545.621,1117.78 572.621,1106.28 598.5,1092C 615.498,1082.5 632.165,1072.5 648.5,1062C 678.825,1041.5 709.492,1021.5 740.5,1002C 773.385,982.891 807.385,965.891 842.5,951C 871.19,940.328 900.524,932.828 930.5,928.5C 957.615,925.327 984.615,926.16 1011.5,931C 1022.58,939.238 1032.91,948.405 1042.5,958.5C 1038.55,959.491 1034.55,959.824 1030.5,959.5 Z"/></g>
<g><path style="opacity:1" fill="#133b8a" d="M 1031.5,960.5 C 1036.21,960.173 1040.88,960.507 1045.5,961.5C 1061.35,978.183 1077.02,995.016 1092.5,1012C 1088.89,1012.94 1085.22,1013.44 1081.5,1013.5C 1042.59,1018.39 1005.26,1028.89 969.5,1045C 948.586,1054.79 927.919,1065.12 907.5,1076C 841.409,1119.39 772.742,1158.73 701.5,1194C 653.111,1216.85 602.777,1234.02 550.5,1245.5C 549.407,1218.22 544.407,1191.55 535.5,1165.5C 537.621,1165.67 539.621,1165.34 541.5,1164.5C 573.112,1155.53 603.779,1144.03 633.5,1130C 653.5,1120 673.5,1110 693.5,1100C 744.923,1066.95 798.256,1036.95 853.5,1010C 910.056,982.974 969.389,966.474 1031.5,960.5 Z"/></g>
<g><path style="opacity:1" fill="#131418" d="M 926.5,927.5 C 927.568,928.434 928.901,928.768 930.5,928.5C 900.524,932.828 871.19,940.328 842.5,951C 807.385,965.891 773.385,982.891 740.5,1002C 709.492,1021.5 678.825,1041.5 648.5,1062C 632.165,1072.5 615.498,1082.5 598.5,1092C 572.621,1106.28 545.621,1117.78 517.5,1126.5C 516.833,1125.83 516.167,1125.17 515.5,1124.5C 544.514,1116.33 572.18,1104.83 598.5,1090C 644.701,1061.79 690.368,1032.79 735.5,1003C 767.678,983.91 801.011,966.91 835.5,952C 864.769,939.854 895.103,931.688 926.5,927.5 Z"/></g>
<g><path style="opacity:1" fill="#fcfcfd" d="M 277.5,1014.5 C 369.441,1009.07 442.608,1043.07 497,1116.5C 545.287,1190.57 551.787,1268.24 516.5,1349.5C 510.385,1347.28 504.385,1344.78 498.5,1342C 457.998,1294.81 411.998,1254.15 360.5,1220C 349.435,1215.64 338.435,1210.97 327.5,1206C 301.799,1189.97 280.299,1169.47 263,1144.5C 250.908,1122.42 237.241,1101.42 222,1081.5C 210.907,1067.74 199.074,1054.57 186.5,1042C 208.695,1030.82 232.028,1022.82 256.5,1018C 263.707,1017.22 270.707,1016.06 277.5,1014.5 Z"/></g>
<g><path style="opacity:1" fill="#fdfdfd" d="M 1081.5,1014.5 C 1086.18,1014.33 1090.85,1014.5 1095.5,1015C 1107.67,1028.01 1120.01,1040.84 1132.5,1053.5C 1128.17,1054.17 1123.83,1054.83 1119.5,1055.5C 1118.83,1055.5 1118.17,1055.5 1117.5,1055.5C 1074.29,1059.14 1032.95,1069.97 993.5,1088C 953.079,1106.7 914.745,1128.7 878.5,1154C 851.008,1173.58 823.341,1192.91 795.5,1212C 755.043,1237.06 712.709,1258.73 668.5,1277C 636.976,1288.8 604.643,1296.63 571.5,1300.5C 562.518,1301.22 553.518,1301.55 544.5,1301.5C 547.948,1283.51 550.281,1265.51 551.5,1247.5C 622.988,1230.5 690.988,1204.34 755.5,1169C 809.658,1139.1 862.658,1107.43 914.5,1074C 958.791,1048.69 1005.79,1030.35 1055.5,1019C 1064.33,1017.62 1073,1016.12 1081.5,1014.5 Z"/></g>
<g><path style="opacity:1" fill="#1a3f8c" d="M 273.5,1038.5 C 299.268,1066.1 325.268,1093.6 351.5,1121C 350.407,1122.37 349.074,1122.7 347.5,1122C 329.429,1105.47 309.762,1091.13 288.5,1079C 282.219,1075.57 275.552,1074.24 268.5,1075C 265.802,1080.62 266.302,1086.12 270,1091.5C 285.853,1115.5 307.02,1133 333.5,1144C 380.311,1155.47 418.144,1180.3 447,1218.5C 450.527,1224.22 453.527,1230.22 456,1236.5C 457.519,1246.15 453.352,1251.15 443.5,1251.5C 435.382,1250.34 427.382,1248.68 419.5,1246.5C 419.585,1248.93 420.585,1250.93 422.5,1252.5C 421.998,1253.52 421.332,1253.69 420.5,1253C 403.5,1237.33 386.5,1221.67 369.5,1206C 370.833,1205.33 372.167,1205.33 373.5,1206C 389.18,1220.34 406.513,1232.34 425.5,1242C 445.602,1247.57 449.436,1242.07 437,1225.5C 428.895,1215.38 419.062,1207.55 407.5,1202C 390.674,1195.72 374.007,1189.06 357.5,1182C 322.15,1162.66 292.316,1136.82 268,1104.5C 261.168,1095.84 256.168,1086.17 253,1075.5C 251.195,1067.27 254.362,1062.11 262.5,1060C 268.825,1059.5 275.158,1059.33 281.5,1059.5C 279.634,1053.44 276.467,1048.11 272,1043.5C 271.387,1041.5 271.887,1039.84 273.5,1038.5 Z"/></g>
<g><path style="opacity:1" fill="#1a3e8c" d="M 342.5,1036.5 C 342.897,1035.47 343.563,1035.31 344.5,1036C 346.871,1038.71 349.537,1041.04 352.5,1043C 366.87,1056.37 380.87,1070.04 394.5,1084C 394.333,1084.5 394.167,1085 394,1085.5C 380.079,1072.29 363.912,1062.79 345.5,1057C 334.896,1056.64 331.73,1061.47 336,1071.5C 344.098,1087.6 356.598,1098.76 373.5,1105C 384.468,1107.16 395.468,1109.16 406.5,1111C 416.126,1113.54 425.459,1116.88 434.5,1121C 469.93,1143.42 496.43,1173.59 514,1211.5C 516.245,1218.35 516.911,1225.35 516,1232.5C 514.86,1237.64 511.694,1240.81 506.5,1242C 502.445,1242.23 498.445,1242.73 494.5,1243.5C 493.353,1245.76 493.186,1248.1 494,1250.5C 496.161,1255.49 498.828,1260.16 502,1264.5C 502.667,1265.83 502.667,1267.17 502,1268.5C 476.016,1241.02 449.849,1213.68 423.5,1186.5C 423.808,1185.69 424.308,1185.03 425,1184.5C 442.556,1201.05 462.056,1214.89 483.5,1226C 488.995,1228.18 494.661,1228.85 500.5,1228C 501.931,1227.53 503.097,1226.7 504,1225.5C 505.434,1221.59 505.767,1217.59 505,1213.5C 495.033,1189.87 478.533,1172.37 455.5,1161C 439.874,1157.56 424.207,1154.23 408.5,1151C 371.76,1136.26 344.594,1111.1 327,1075.5C 318.024,1051.97 325.858,1043.3 350.5,1049.5C 349.645,1044.14 346.978,1039.8 342.5,1036.5 Z"/></g>
<g><path style="opacity:1" fill="#7f7f7f" d="M 1132.5,1053.5 C 1133.04,1053.56 1133.38,1053.89 1133.5,1054.5C 1128.88,1055.49 1124.21,1055.83 1119.5,1055.5C 1123.83,1054.83 1128.17,1054.17 1132.5,1053.5 Z"/></g>
<g><path style="opacity:1" fill="#133b8a" d="M 1117.5,1056.5 C 1123.84,1056.33 1130.18,1056.5 1136.5,1057C 1145.83,1067.67 1155.83,1077.67 1166.5,1087C 1123.26,1100.19 1081.93,1117.86 1042.5,1140C 1022.9,1151.27 1003.57,1162.94 984.5,1175C 940.339,1204.91 896.006,1234.58 851.5,1264C 797.473,1299.68 739.473,1327.34 677.5,1347C 647.604,1355.55 617.104,1360.05 586,1360.5C 566.532,1360.55 547.365,1358.22 528.5,1353.5C 535.046,1337.32 540.046,1320.65 543.5,1303.5C 554.852,1303.13 566.186,1302.47 577.5,1301.5C 617.388,1296.26 655.722,1285.43 692.5,1269C 755.346,1240.06 814.012,1204.73 868.5,1163C 905.853,1136.64 945.186,1113.31 986.5,1093C 1028.15,1073.17 1071.82,1061.01 1117.5,1056.5 Z"/></g>
<g><path style="opacity:1" fill="#131418" d="M 1030.5,959.5 C 1030.5,960.167 1030.83,960.5 1031.5,960.5C 969.389,966.474 910.056,982.974 853.5,1010C 798.256,1036.95 744.923,1066.95 693.5,1100C 673.5,1110 653.5,1120 633.5,1130C 603.779,1144.03 573.112,1155.53 541.5,1164.5C 541.158,1163.66 540.492,1163.33 539.5,1163.5C 553.479,1159.34 567.479,1154.84 581.5,1150C 643.369,1125.4 702.035,1095.07 757.5,1059C 797.399,1035.38 838.732,1014.38 881.5,996C 929.197,975.826 978.864,963.659 1030.5,959.5 Z"/></g>
<g><path style="opacity:1" fill="#151518" d="M 1117.5,1055.5 C 1117.5,1055.83 1117.5,1056.17 1117.5,1056.5C 1071.82,1061.01 1028.15,1073.17 986.5,1093C 945.186,1113.31 905.853,1136.64 868.5,1163C 814.012,1204.73 755.346,1240.06 692.5,1269C 655.722,1285.43 617.388,1296.26 577.5,1301.5C 575.735,1300.54 573.735,1300.21 571.5,1300.5C 604.643,1296.63 636.976,1288.8 668.5,1277C 712.709,1258.73 755.043,1237.06 795.5,1212C 823.341,1192.91 851.008,1173.58 878.5,1154C 914.745,1128.7 953.079,1106.7 993.5,1088C 1032.95,1069.97 1074.29,1059.14 1117.5,1055.5 Z"/></g>
<g><path style="opacity:1" fill="#111217" d="M 1081.5,1013.5 C 1081.5,1013.83 1081.5,1014.17 1081.5,1014.5C 1073,1016.12 1064.33,1017.62 1055.5,1019C 1005.79,1030.35 958.791,1048.69 914.5,1074C 862.658,1107.43 809.658,1139.1 755.5,1169C 690.988,1204.34 622.988,1230.5 551.5,1247.5C 551.167,1246.83 550.833,1246.17 550.5,1245.5C 602.777,1234.02 653.111,1216.85 701.5,1194C 772.742,1158.73 841.409,1119.39 907.5,1076C 927.919,1065.12 948.586,1054.79 969.5,1045C 1005.26,1028.89 1042.59,1018.39 1081.5,1013.5 Z"/></g>
<g><path style="opacity:1" fill="#fcdf49" d="M 999.5,1178.5 C 1045.13,1224.3 1090.63,1270.3 1136,1316.5C 1136.69,1317.33 1136.52,1318 1135.5,1318.5C 1127.2,1323.64 1119.03,1328.97 1111,1334.5C 1065.5,1288.33 1020,1242.17 974.5,1196C 983.013,1190.3 991.346,1184.47 999.5,1178.5 Z"/></g>
</svg>
